<?xml version="1.0" encoding="utf-8"?>
<!-- Generator: Adobe Illustrator 26.0.1, SVG Export Plug-In . SVG Version: 6.00 Build 0)  -->
<svg version="1.1" id="Layer_1" xmlns="http://www.w3.org/2000/svg" xmlns:xlink="http://www.w3.org/1999/xlink" x="0px" y="0px"
	 viewBox="0 0 321.7 310.7" style="enable-background:new 0 0 321.7 310.7;" xml:space="preserve">
<style type="text/css">
	.st0{fill:#36364C;}
	.st1{fill:#FF9B00;}
	.st2{fill:#0085FF;}
	.st3{fill:#FF2A00;}
	.st4{fill:#FFFFFF;}
</style>
<g>
	<path class="st0" d="M225.1,81.2L88.5,2.4c-5.5-3.2-12.4-3.2-17.9,0L9,37.9c-5.5,3.2-9,9.1-9,15.5v157.7c0,6.4,3.4,12.3,9,15.5
		l61.6,35.5c2.8,1.6,5.9,2.4,9,2.4c3.1,0,6.2-0.8,9-2.4l136.6-78.8c5.5-3.2,9-9.1,9-15.5V96.8C234,90.4,230.6,84.4,225.1,81.2z"/>
	<g>
		<path class="st0" d="M89.6,283v-2.8c0-3-1.3-3.5-2.9-2.6c-2.4,1.4-3.2,3.1-3.2,5.8v18.1c0,2.7,0.8,3.5,3.2,2.1
			c2.2-1.2,2.9-2.9,2.9-5.3v-4.3l6-3.4v4.1c0,5.1-2.9,10.8-8.8,14.2c-6.2,3.6-9.1,1.1-9.1-3.9v-18.4c0-5,2.9-10.8,9.1-14.4
			c6-3.4,8.8-0.7,8.8,4.7v2.6L89.6,283z"/>
		<path class="st0" d="M101.6,272.8c0-5.1,2.9-10.9,9.1-14.5c6.2-3.6,9.1-1.2,9.1,3.9v18.5c0,5.1-2.9,10.9-9.1,14.4
			c-6.2,3.6-9.1,1.1-9.1-3.9V272.8z M107.5,287.7c0,2.7,0.8,3.5,3.2,2.2c2.4-1.4,3.2-3.1,3.2-5.8v-18.2c0-2.7-0.8-3.5-3.2-2.1
			c-2.4,1.4-3.2,3.1-3.2,5.8V287.7z"/>
		<path class="st0" d="M125.6,286.2v-36l5.5-3.2l7.2,16.4l0.1-0.1v-20.6l5.4-3.1v36l-5.2,3l-7.6-18.1l-0.1,0.1v22.5L125.6,286.2z"/>
		<path class="st0" d="M149.6,272.4v-36.1l5.5-3.2l7.2,16.5l0.1-0.1v-20.7l5.4-3.1v36.2l-5.2,3l-7.6-18.2l-0.1,0.1v22.6L149.6,272.4
			z"/>
		<path class="st0" d="M173.6,258.6v-36.2l15.9-9.2v5.4l-10,5.8v9.3l7.7-4.4v5.4l-7.7,4.4v10.6l10.7-6.1v5.4L173.6,258.6z"/>
		<path class="st0" d="M206.9,215.3v-2.8c0-3.1-1.3-3.6-2.9-2.7c-2.4,1.4-3.2,3.1-3.2,5.9V234c0,2.7,0.8,3.6,3.2,2.2
			c2.2-1.2,2.9-3,2.9-5.3v-4.4l6-3.4v4.2c0,5.1-2.9,11-8.8,14.4c-6.2,3.6-9.1,1.1-9.1-4.1v-18.7c0-5.1,2.9-11,9.1-14.6
			c6-3.4,8.8-0.6,8.8,4.9v2.7L206.9,215.3z"/>
		<path class="st0" d="M222.3,199.6l-5.8,3.3v-5.4l17.5-10.1v5.5l-5.8,3.3v31l-6,3.4V199.6z"/>
	</g>
	<g>
		<polygon class="st1" points="233.9,233.9 188.5,260 276.4,310.7 321.7,284.6 		"/>
		<g>
			<path class="st0" d="M210.3,264.6l-5.9-3.4l37.3-14.1l7.4,4.2L225,273l-5.9-3.4l5.7-4.6l-6.6-3.8L210.3,264.6z M223.7,259.1
				l4.9,2.8l10.8-9l-0.1-0.1L223.7,259.1z"/>
			<path class="st0" d="M282.7,270.7L252.9,289l-5.3-3l23.4-14.3l-0.1-0.1L242,282.7l-2.9-1.7l18.2-17.3l-0.1-0.1l-23.6,14.1l-5.3-3
				l30.4-18l7.8,4.5l-13.4,13l0.1,0.1l21.8-8.2L282.7,270.7z"/>
			<path class="st0" d="M291.7,284.6c2.3-1.7,1.4-3.1,0.1-3.9c-1.9-1.1-4-1-5.9,0.1c-5,3.1,4.7,11.6-3.2,16.7
				c-4.8,3.1-11.4,2.5-17.1-0.7c-5.6-3.2-5.1-7.4-0.9-10.3l6.4,2.9c-2.7,2-2.8,3.7-0.9,4.9c2.1,1.2,4.5,1.4,6.2,0.3
				c5.8-3.7-4.8-11.6,3.7-16.9c4.7-2.9,10.8-2.7,16.6,0.7c4.8,2.8,4.7,6.3,1.1,9.2L291.7,284.6z"/>
		</g>
	</g>
	<g>
		<path class="st2" d="M140.1,224.5c4.6-2.7,4.6-9.4,0-12.1l-24.1-13.9L92,184.7c-4.6-2.7-10.4,0.7-10.4,6v55.6
			c0,5.4,5.8,8.7,10.4,6L140.1,224.5z"/>
		<path class="st3" d="M72,8.6L16.7,40.6c-3.6,2.1-3.6,7.3,0,9.4l51.4,29.7c7.1,4.1,15.8,4.1,22.8,0L142.4,50c3.6-2.1,3.6-7.3,0-9.4
			L87.1,8.6C82.4,6,76.7,6,72,8.6z"/>
		<path class="st1" d="M6.6,131.9C6.6,131.9,6.6,131.9,6.6,131.9C6.6,131.9,6.6,131.9,6.6,131.9v81.2c0,2.6,1.4,5.1,3.7,6.4
			l58.5,33.8c3.9,2.2,8.7-0.6,8.7-5.1v-73c0,0,0,0,0,0c0,0,0,0,0,0V102c0-7.6-4-14.6-10.6-18.4L15.2,53.8c-3.8-2.2-8.6,0.6-8.6,5
			V131.9z"/>
		<path class="st4" d="M227.6,159.7v-66c0-2.5-1.3-4.8-3.5-6l-58.8-33.9c-3.9-2.2-8.7,0.6-8.7,5v67.9c0,2.5,1.3,4.8,3.5,6l57.1,33
			C221.8,168.4,227.6,165.1,227.6,159.7z"/>
		<path class="st4" d="M91.9,165.8l56.7-32.7c2.5-1.5,4.1-4.2,4.1-7.1V60.4c0-5.2-5.6-8.4-10.1-5.8L94.2,82.5
			c-7.8,4.5-12.6,12.8-12.6,21.8v55.6C81.6,165.1,87.3,168.4,91.9,165.8z"/>
		<path class="st4" d="M90.9,179.4l60,34.7c2.3,1.3,5.1,1.3,7.4,0l60.6-35c3-1.7,3-6.1,0-7.8l-60.6-35c-2.3-1.3-5.1-1.3-7.4,0
			l-60,34.7C87.6,172.9,87.6,177.5,90.9,179.4z"/>
	</g>
	<g>
		<g>
			<path class="st0" d="M180.3,145.9l-25.6-44.4l-25.6,44.4l25.6,16.3L180.3,145.9z M156.6,131v-18.8l16.2,28.1L156.6,131z
				 M174.3,145.3l-17.7,11.2v-21.3L174.3,145.3z M152.9,131l-16.1,9.2l16.1-28V131z M152.9,135.3v21.3l-17.7-11.2L152.9,135.3z"/>
		</g>
		<g>
			<path class="st0" d="M154.8,167.4l-25.6-16.3l25.6,37.4l25.6-37.4L154.8,167.4L154.8,167.4z M152.8,170.6L152.8,170.6l0.1,8.6
				L142.6,164L152.8,170.6z M167,164l-10.4,15.2v-8.5l0.1-0.1L167,164z"/>
		</g>
	</g>
	<g>
		<path class="st0" d="M0,232.5l9,5.2c6.2,3.6,9.6,8.9,9.6,16.1v13.9c0,7.2-3.3,8.6-9.6,5l-9-5.2V232.5z M6.1,266l2.1,1.2
			c3.2,1.9,4.3,1.3,4.3-2.4v-15.3c0-3.7-1.1-5.5-4.3-7.4l-2.1-1.2V266z"/>
		<path class="st0" d="M26.9,283v-35l16.2,9.4v5.2l-10.2-5.9v9l7.8,4.5v5.2l-7.8-4.5v10.3l10.8,6.3v5.2L26.9,283z"/>
		<path class="st0" d="M63.3,269.1l6,3.4l-7.4,30.6l-6.1-3.5l-7.4-39.2l6,3.4l4.4,26.7l0.1,0.1L63.3,269.1z"/>
	</g>
</g>
</svg>
